# Blender v2.81 (sub 12) OBJ File: 'untitled.blend'
# www.blender.org
mtllib door.mtl
o Door_bedroom.005
v 5.983568 -2.711740 -6.764799
v 5.983568 -1.991840 -6.087684
v 5.983568 -1.991840 -6.611900
v 5.983568 -0.713206 -6.611899
v 6.086562 -2.711740 -6.764799
v 6.086562 -0.617644 -6.611899
v 6.086562 -0.713206 -6.611899
v 6.086562 -1.991840 -6.611900
v 5.983568 -0.617644 -6.611899
v 5.983568 0.660985 -6.611899
v 6.086562 0.813884 -6.764798
v 6.086562 0.660985 -6.611899
v 5.983568 0.660985 -6.087684
v 5.983568 0.813884 -6.764798
v 5.983568 -2.711740 -5.315013
v 5.983568 -0.617644 -5.467912
v 5.983568 -0.713206 -5.467912
v 5.983568 -1.991840 -5.467912
v 6.086562 -2.711740 -5.315013
v 6.086562 -1.991840 -5.467912
v 6.086562 -0.713206 -5.467912
v 6.086562 -0.617644 -5.467912
v 6.086562 0.660985 -5.467912
v 5.983568 0.813884 -5.315013
v 5.983568 0.660985 -5.467912
v 6.086562 0.813884 -5.315013
v 6.086562 -1.991840 -6.087684
v 6.086562 -1.991840 -5.992122
v 5.983568 -1.991840 -5.992122
v 6.086562 0.660985 -5.992122
v 6.086562 0.660985 -6.087684
v 5.983568 0.660985 -5.992122
v 5.983568 -0.713206 -5.992122
v 5.983568 -0.713206 -6.087684
v 6.086562 -0.713206 -6.087684
v 6.086562 -0.713206 -5.992122
v 5.983568 -0.617644 -6.087684
v 5.983568 -0.617644 -5.992122
v 6.086562 -0.617644 -6.087684
v 6.086562 -0.617644 -5.992122
v 6.028429 -1.991840 -6.611900
v 6.028429 -1.991840 -6.087684
v 6.028429 -1.938750 -6.140774
v 6.028429 -1.938750 -6.558810
v 6.021792 -1.932114 -6.147410
v 6.021792 -1.932114 -6.552174
v 6.021792 -1.905569 -6.173955
v 6.021792 -1.905569 -6.525629
v 6.028429 -1.898933 -6.180592
v 6.028429 -1.898933 -6.518992
v 6.028429 -0.713206 -6.087684
v 6.028429 -0.766296 -6.140774
v 6.021792 -0.772932 -6.147410
v 6.021792 -0.799477 -6.173955
v 6.028429 -0.806113 -6.180592
v 6.028429 -0.713206 -6.611899
v 6.028429 -0.766296 -6.558810
v 6.021792 -0.772932 -6.552174
v 6.021792 -0.799477 -6.525629
v 6.028429 -0.806113 -6.518992
v 6.041701 -1.991840 -6.087684
v 6.041701 -1.991840 -6.611900
v 6.041701 -1.938750 -6.558810
v 6.041701 -1.938750 -6.140774
v 6.048337 -1.932114 -6.552174
v 6.048337 -1.932114 -6.147410
v 6.048337 -1.905569 -6.525629
v 6.048337 -1.905569 -6.173955
v 6.041701 -1.898933 -6.518992
v 6.041701 -1.898933 -6.180592
v 6.041701 -0.713206 -6.087684
v 6.041701 -0.766296 -6.140774
v 6.048337 -0.772932 -6.147410
v 6.048337 -0.799477 -6.173955
v 6.041701 -0.806113 -6.180592
v 6.041701 -0.713206 -6.611899
v 6.041701 -0.766296 -6.558810
v 6.048337 -0.772932 -6.552174
v 6.048337 -0.799477 -6.525629
v 6.041701 -0.806113 -6.518992
v 6.028429 -1.991840 -5.992122
v 6.028429 -1.991840 -5.467912
v 6.028429 -1.938750 -5.521002
v 6.028429 -1.938750 -5.939033
v 6.021792 -1.932114 -5.527638
v 6.021792 -1.932114 -5.932396
v 6.021792 -1.905569 -5.554183
v 6.021792 -1.905569 -5.905851
v 6.028429 -1.898933 -5.560820
v 6.028429 -1.898933 -5.899215
v 6.028429 -0.713206 -5.467912
v 6.028429 -0.766296 -5.521002
v 6.021792 -0.772932 -5.527638
v 6.021792 -0.799477 -5.554183
v 6.028429 -0.806113 -5.560819
v 6.028429 -0.713206 -5.992122
v 6.028429 -0.766296 -5.939032
v 6.021792 -0.772932 -5.932396
v 6.021792 -0.799477 -5.905851
v 6.028429 -0.806113 -5.899215
v 6.041701 -1.991840 -5.467912
v 6.041701 -1.991840 -5.992122
v 6.041701 -1.938750 -5.939033
v 6.041701 -1.938750 -5.521002
v 6.048337 -1.932114 -5.932396
v 6.048337 -1.932114 -5.527638
v 6.048337 -1.905569 -5.905851
v 6.048337 -1.905569 -5.554183
v 6.041701 -1.898933 -5.899215
v 6.041701 -1.898933 -5.560820
v 6.041701 -0.713206 -5.467912
v 6.041701 -0.766296 -5.521002
v 6.048337 -0.772932 -5.527638
v 6.048337 -0.799477 -5.554183
v 6.041701 -0.806113 -5.560819
v 6.041701 -0.713206 -5.992122
v 6.041701 -0.766296 -5.939032
v 6.048337 -0.772932 -5.932396
v 6.048337 -0.799477 -5.905851
v 6.041701 -0.806113 -5.899215
v 6.028429 -0.617644 -6.611899
v 6.028429 -0.617644 -6.087684
v 6.028429 -0.564554 -6.140774
v 6.028429 -0.564554 -6.558810
v 6.021792 -0.557918 -6.147410
v 6.021792 -0.557918 -6.552174
v 6.021792 -0.531373 -6.173955
v 6.021792 -0.531373 -6.525629
v 6.028429 -0.524736 -6.180592
v 6.028429 -0.524736 -6.518992
v 6.028429 0.660985 -6.087684
v 6.028429 0.607895 -6.140774
v 6.021792 0.601259 -6.147410
v 6.021792 0.574714 -6.173955
v 6.028429 0.568078 -6.180592
v 6.028429 0.660985 -6.611899
v 6.028429 0.607895 -6.558809
v 6.021792 0.601259 -6.552173
v 6.021792 0.574714 -6.525628
v 6.028429 0.568078 -6.518992
v 6.041701 -0.617644 -6.087684
v 6.041701 -0.617644 -6.611899
v 6.041701 -0.564554 -6.558810
v 6.041701 -0.564554 -6.140774
v 6.048337 -0.557918 -6.552174
v 6.048337 -0.557918 -6.147410
v 6.048337 -0.531373 -6.525629
v 6.048337 -0.531373 -6.173955
v 6.041701 -0.524736 -6.518992
v 6.041701 -0.524736 -6.180592
v 6.041701 0.660985 -6.087684
v 6.041701 0.607895 -6.140774
v 6.048337 0.601259 -6.147410
v 6.048337 0.574714 -6.173955
v 6.041701 0.568078 -6.180592
v 6.041701 0.660985 -6.611899
v 6.041701 0.607895 -6.558809
v 6.048337 0.601259 -6.552173
v 6.048337 0.574714 -6.525628
v 6.041701 0.568078 -6.518992
v 6.028429 -0.617644 -5.992122
v 6.028429 -0.617644 -5.467912
v 6.028429 -0.564554 -5.521002
v 6.028429 -0.564554 -5.939032
v 6.021792 -0.557918 -5.527638
v 6.021792 -0.557918 -5.932396
v 6.021792 -0.531373 -5.554183
v 6.021792 -0.531373 -5.905851
v 6.028429 -0.524737 -5.560819
v 6.028429 -0.524736 -5.899215
v 6.028429 0.660985 -5.467912
v 6.028429 0.607895 -5.521002
v 6.021792 0.601259 -5.527638
v 6.021792 0.574714 -5.554183
v 6.028429 0.568077 -5.560819
v 6.028429 0.660985 -5.992122
v 6.028429 0.607895 -5.939032
v 6.021792 0.601259 -5.932395
v 6.021792 0.574714 -5.905851
v 6.028429 0.568078 -5.899214
v 6.041701 -0.617644 -5.467912
v 6.041701 -0.617644 -5.992122
v 6.041701 -0.564554 -5.939032
v 6.041701 -0.564554 -5.521002
v 6.048337 -0.557918 -5.932396
v 6.048337 -0.557918 -5.527638
v 6.048337 -0.531373 -5.905851
v 6.048337 -0.531373 -5.554183
v 6.041701 -0.524736 -5.899215
v 6.041701 -0.524737 -5.560819
v 6.041701 0.660985 -5.467912
v 6.041701 0.607895 -5.521002
v 6.048337 0.601259 -5.527638
v 6.048337 0.574714 -5.554183
v 6.041701 0.568077 -5.560819
v 6.041701 0.660985 -5.992122
v 6.041701 0.607895 -5.939032
v 6.048337 0.601259 -5.932395
v 6.048337 0.574714 -5.905851
v 6.041701 0.568078 -5.899214
v 5.944308 -2.711740 -6.764799
v 5.944308 -2.711740 -6.840590
v 6.202489 -2.711740 -6.840590
v 6.202489 -2.711740 -6.764799
v 5.944308 0.813884 -6.764798
v 5.944308 0.813884 -6.840590
v 6.202489 0.813884 -6.764798
v 6.202489 0.813884 -6.840590
v 5.944308 -2.711740 -5.239223
v 5.944308 -2.711740 -5.315013
v 6.202489 -2.711740 -5.315013
v 6.202489 -2.711740 -5.239223
v 5.944308 0.813884 -5.239222
v 5.944308 0.813884 -5.315013
v 6.202489 0.813884 -5.239222
v 6.202489 0.813884 -5.315013
v 5.944308 0.889675 -5.239222
v 5.944308 0.889675 -6.840590
v 6.202489 0.889675 -5.239222
v 6.202489 0.889675 -6.840590
vt 1.205978 2.999683
vt 0.235723 1.978283
vt 0.989198 1.979167
vt 0.989616 0.162333
vt 1.516573 -2.280808
vt 1.293583 0.671162
vt 1.291263 0.530048
vt 1.297888 -1.272655
vt 0.986915 0.019670
vt 0.989074 -1.779894
vt 1.500497 2.703059
vt 1.285686 2.492398
vt 0.231050 -1.777061
vt 1.205978 -1.999683
vt 0.617400 1.500000
vt 0.617400 1.500000
vt 0.617400 1.500000
vt 0.617400 1.500000
vt 0.617400 1.500000
vt 0.617400 1.500000
vt 0.617400 1.500000
vt 0.617400 1.500000
vt 0.617400 1.500000
vt 0.617400 1.500000
vt 0.617400 1.500000
vt 0.617400 1.500000
vt -0.796827 2.981377
vt -0.588508 0.045382
vt -0.585563 0.185150
vt -0.583851 1.973289
vt -0.516572 -2.296303
vt -0.299426 -1.283401
vt -0.297891 0.543426
vt -0.295059 0.687483
vt -0.295985 2.489596
vt -0.803880 -1.987177
vt -0.586593 -1.774025
vt -0.511048 2.703059
vt 0.617400 1.500000
vt 0.617400 1.500000
vt 0.617400 1.500000
vt 0.617400 1.500000
vt 0.617400 1.500000
vt 0.617400 1.500000
vt 0.617400 1.500000
vt 0.617400 1.500000
vt 0.617400 1.500000
vt 0.617400 1.500000
vt 0.617400 1.500000
vt 0.617400 1.500000
vt 0.627181 -1.284305
vt 0.464557 -1.291259
vt 0.075110 1.974024
vt 0.617400 1.500000
vt 0.617400 1.500000
vt 0.617400 1.500000
vt 0.617400 1.500000
vt 0.465032 2.494245
vt 0.627084 2.490567
vt 0.069694 -1.773161
vt 0.617400 1.500000
vt 0.617400 1.500000
vt 0.617400 1.500000
vt 0.617400 1.500000
vt 0.127684 0.169802
vt 0.260932 0.169556
vt 0.571681 0.540474
vt 0.437526 0.540159
vt 0.617400 1.500000
vt 0.617400 1.500000
vt 0.617400 1.500000
vt 0.617400 1.500000
vt 0.259524 0.036326
vt 0.126301 0.038287
vt 0.572494 0.672604
vt 0.438515 0.674014
vt 0.617400 1.500000
vt 0.617400 1.500000
vt 0.617400 1.500000
vt 0.617400 1.500000
vt 0.000064 0.000065
vt 0.409996 0.000064
vt 0.368479 0.041580
vt 0.041580 0.041580
vt 0.617400 1.500000
vt 0.617400 1.500000
vt 0.617400 1.500000
vt 0.617400 1.500000
vt 0.000059 0.000059
vt 0.349193 0.000060
vt 0.326297 0.022956
vt 0.022956 0.022956
vt 0.617400 1.500000
vt 0.617400 1.500000
vt 0.617400 1.500000
vt 0.617400 1.500000
vt 0.409996 0.999936
vt 0.368481 0.958420
vt 0.617400 1.500000
vt 0.617400 1.500000
vt 0.349193 0.999941
vt 0.326296 0.977044
vt 0.617400 1.500000
vt 0.617400 1.500000
vt 0.000064 0.999936
vt 0.041581 0.958420
vt 0.617400 1.500000
vt 0.617400 1.500000
vt 0.000059 0.999940
vt 0.022955 0.977044
vt 0.617400 1.500000
vt 0.617400 1.500000
vt 0.171403 0.094607
vt 0.407685 0.094607
vt 0.407685 0.857649
vt 0.171403 0.857649
vt 0.497190 0.000065
vt 0.907121 0.000064
vt 0.865605 0.041580
vt 0.538705 0.041580
vt 0.617400 1.500000
vt 0.617400 1.500000
vt 0.617400 1.500000
vt 0.617400 1.500000
vt 0.617400 1.500000
vt 0.617400 1.500000
vt 0.617400 1.500000
vt 0.617400 1.500000
vt 0.497189 0.999936
vt 0.538706 0.958420
vt 0.617400 1.500000
vt 0.617400 1.500000
vt 0.617400 1.500000
vt 0.617400 1.500000
vt 0.907121 0.999936
vt 0.865605 0.958420
vt 0.617400 1.500000
vt 0.617400 1.500000
vt 0.617400 1.500000
vt 0.617400 1.500000
vt 0.637903 0.076928
vt 0.874185 0.076928
vt 0.874186 0.839970
vt 0.637903 0.839970
vt 0.617400 1.500000
vt 0.617400 1.500000
vt 0.617400 1.500000
vt 0.617400 1.500000
vt 0.617400 1.500000
vt 0.617400 1.500000
vt 0.617400 1.500000
vt 0.617400 1.500000
vt 0.000064 0.000064
vt 0.409991 0.000064
vt 0.368474 0.041580
vt 0.041580 0.041580
vt 0.617400 1.500000
vt 0.617400 1.500000
vt 0.617400 1.500000
vt 0.617400 1.500000
vt 0.007436 -0.001280
vt 0.356565 -0.001280
vt 0.333669 0.021616
vt 0.030333 0.021617
vt 0.617400 1.500000
vt 0.617400 1.500000
vt 0.617400 1.500000
vt 0.617400 1.500000
vt 0.409991 0.999936
vt 0.368475 0.958420
vt 0.617400 1.500000
vt 0.617400 1.500000
vt 0.356565 0.998602
vt 0.333668 0.975705
vt 0.617400 1.500000
vt 0.617400 1.500000
vt 0.000064 0.999936
vt 0.041580 0.958420
vt 0.617400 1.500000
vt 0.617400 1.500000
vt 0.007436 0.998601
vt 0.030332 0.975705
vt 0.617400 1.500000
vt 0.617400 1.500000
vt 0.763552 0.000170
vt 0.999830 0.000170
vt 0.999830 0.763212
vt 0.763552 0.763212
vt 0.104722 0.000064
vt 0.514649 0.000064
vt 0.473133 0.041580
vt 0.146238 0.041580
vt 0.617400 1.500000
vt 0.617400 1.500000
vt 0.617400 1.500000
vt 0.617400 1.500000
vt 0.617400 1.500000
vt 0.617400 1.500000
vt 0.617400 1.500000
vt 0.617400 1.500000
vt 0.104722 0.999936
vt 0.146239 0.958420
vt 0.617400 1.500000
vt 0.617400 1.500000
vt 0.617400 1.500000
vt 0.617400 1.500000
vt 0.514649 0.999936
vt 0.473134 0.958420
vt 0.617400 1.500000
vt 0.617400 1.500000
vt 0.617400 1.500000
vt 0.617400 1.500000
vt 0.763551 0.000170
vt 0.999830 0.000170
vt 0.999830 0.763212
vt 0.763551 0.763212
vt 0.617400 1.500000
vt 0.617400 1.500000
vt 0.617400 1.500000
vt 0.617400 1.500000
vt 0.617400 1.500000
vt 0.617400 1.500000
vt 0.617400 1.500000
vt 0.617400 1.500000
vt 0.000064 0.000064
vt 0.409997 0.000064
vt 0.368481 0.041580
vt 0.041580 0.041580
vt 0.617400 1.500000
vt 0.617400 1.500000
vt 0.617400 1.500000
vt 0.617400 1.500000
vt 0.349210 0.999940
vt 0.000059 0.999941
vt 0.022959 0.977042
vt 0.326312 0.977042
vt 0.617400 1.500000
vt 0.617400 1.500000
vt 0.617400 1.500000
vt 0.617400 1.500000
vt 0.409997 0.999936
vt 0.368482 0.958420
vt 0.617400 1.500000
vt 0.617400 1.500000
vt 0.000060 0.000061
vt 0.022957 0.022958
vt 0.617400 1.500000
vt 0.617400 1.500000
vt 0.000064 0.999936
vt 0.041581 0.958420
vt 0.617400 1.500000
vt 0.617400 1.500000
vt 0.349210 0.000059
vt 0.326310 0.022958
vt 0.617400 1.500000
vt 0.617400 1.500000
vt 0.408025 0.094611
vt 0.644308 0.094611
vt 0.644307 0.857649
vt 0.408025 0.857649
vt 0.197305 0.000064
vt 0.607237 0.000064
vt 0.565721 0.041581
vt 0.238820 0.041580
vt 0.617400 1.500000
vt 0.617400 1.500000
vt 0.617400 1.500000
vt 0.617400 1.500000
vt 0.617400 1.500000
vt 0.617400 1.500000
vt 0.617400 1.500000
vt 0.617400 1.500000
vt 0.197304 0.999936
vt 0.238821 0.958420
vt 0.617400 1.500000
vt 0.617400 1.500000
vt 0.617400 1.500000
vt 0.617400 1.500000
vt 0.607237 0.999935
vt 0.565721 0.958420
vt 0.617400 1.500000
vt 0.617400 1.500000
vt 0.617400 1.500000
vt 0.617400 1.500000
vt 0.694256 0.112287
vt 0.930538 0.112287
vt 0.930538 0.875325
vt 0.694255 0.875325
vt 0.617400 1.500000
vt 0.617400 1.500000
vt 0.617400 1.500000
vt 0.617400 1.500000
vt 0.617400 1.500000
vt 0.617400 1.500000
vt 0.617400 1.500000
vt 0.617400 1.500000
vt 0.000064 0.000064
vt 0.409992 0.000064
vt 0.368475 0.041580
vt 0.041580 0.041580
vt 0.617400 1.500000
vt 0.617400 1.500000
vt 0.617400 1.500000
vt 0.617400 1.500000
vt 0.349205 0.999940
vt 0.000059 0.999941
vt 0.022959 0.977042
vt 0.326307 0.977042
vt 0.617400 1.500000
vt 0.617400 1.500000
vt 0.617400 1.500000
vt 0.617400 1.500000
vt 0.409992 0.999936
vt 0.368476 0.958420
vt 0.617400 1.500000
vt 0.617400 1.500000
vt 0.000059 0.000061
vt 0.022957 0.022958
vt 0.617400 1.500000
vt 0.617400 1.500000
vt 0.000064 0.999936
vt 0.041580 0.958420
vt 0.617400 1.500000
vt 0.617400 1.500000
vt 0.349205 0.000059
vt 0.326305 0.022958
vt 0.617400 1.500000
vt 0.617400 1.500000
vt 0.263550 0.210034
vt 0.499828 0.210034
vt 0.499828 0.973073
vt 0.263550 0.973073
vt 0.409993 0.999936
vt 0.000064 0.999936
vt 0.041581 0.958420
vt 0.368478 0.958420
vt 0.617400 1.500000
vt 0.617400 1.500000
vt 0.617400 1.500000
vt 0.617400 1.500000
vt 0.617400 1.500000
vt 0.617400 1.500000
vt 0.617400 1.500000
vt 0.617400 1.500000
vt 0.409993 0.000064
vt 0.368476 0.041580
vt 0.617400 1.500000
vt 0.617400 1.500000
vt 0.617400 1.500000
vt 0.617400 1.500000
vt 0.000065 0.000064
vt 0.041580 0.041580
vt 0.617400 1.500000
vt 0.617400 1.500000
vt 0.617400 1.500000
vt 0.617400 1.500000
vt 0.263550 0.210034
vt 0.499829 0.210034
vt 0.499828 0.973073
vt 0.263550 0.973073
vt 0.617400 1.500000
vt 0.617400 1.500000
vt 0.617400 1.500000
vt 0.617400 1.500000
vt 0.617400 1.500000
vt 0.617400 1.500000
vt 0.617400 1.500000
vt 0.617400 1.500000
vt 0.480000 0.423717
vt 0.417432 0.406169
vt 0.771969 0.019217
vt 0.834536 0.036767
vt 0.124906 2.985715
vt 0.017428 2.985715
vt 0.017432 -2.013892
vt 0.124906 -2.013892
vt 0.316932 -2.463224
vt 0.683063 -2.463224
vt 0.683068 2.536506
vt 0.316933 2.536506
vt 0.446261 -3.440665
vt 0.553739 -3.440665
vt 0.553739 1.558943
vt 0.446265 1.558943
vt 0.014268 -2.652825
vt 0.472084 -2.652825
vt 0.472083 3.598935
vt 0.014262 3.598934
vt 0.354646 0.019220
vt 0.417212 0.036767
vt 0.062677 0.423720
vt 0.000110 0.406172
vt 0.006799 -1.987725
vt 0.114277 -1.987725
vt 0.114277 3.011875
vt 0.006803 3.011876
vt -0.000442 -1.997853
vt 0.357983 -1.997853
vt 0.357982 2.896659
vt -0.000447 2.896659
vt 0.148385 -2.576034
vt 0.255863 -2.576034
vt 0.255858 2.423567
vt 0.148385 2.423567
vt 0.316932 -2.463224
vt 0.683063 -2.463224
vt 0.683068 2.536506
vt 0.316933 2.536506
vt 1.455033 0.516340
vt -0.815823 0.516345
vt -0.815822 0.408867
vt 1.455033 0.408866
vt 0.005978 1.507970
vt 0.005978 -0.491869
vt 0.328403 -0.491869
vt 0.328403 1.507970
vt 1.338877 0.552399
vt 1.338877 0.659877
vt -0.931981 0.659873
vt -0.931981 0.552399
vt 2.580446 0.096968
vt 2.580446 0.903032
vt -2.419153 0.903031
vt -2.419153 0.096968
vt 0.472084 3.733332
vt 0.014262 3.733331
vt -0.000446 3.001879
vt 0.357983 3.001878
vn -1.0000 0.0000 0.0000
vn 1.0000 -0.0000 0.0000
vn 0.0000 0.0000 -1.0000
vn 0.0000 -0.0000 1.0000
vn 0.0000 -1.0000 0.0000
vn 0.0000 1.0000 0.0000
vn -0.7071 -0.7071 -0.0000
vn -0.7071 0.7071 0.0000
vn -0.7071 0.0000 0.7071
vn -0.7071 0.0000 -0.7071
vn 0.7071 -0.7071 -0.0000
vn 0.7071 0.7071 0.0000
vn 0.7071 0.0000 0.7071
vn 0.7071 0.0000 -0.7071
vn -0.7072 0.0000 -0.7071
vn 0.7072 0.0000 -0.7071
usemtl WoodDoor
s off
f 1/1/1 2/2/1 3/3/1 4/4/1
f 5/5/2 6/6/2 7/7/2 8/8/2
f 1/1/1 4/4/1 9/9/1 10/10/1
f 5/5/2 11/11/2 12/12/2 6/6/2
f 10/10/1 13/13/1 14/14/1 1/1/1
f 5/15/3 1/16/3 14/17/3 11/18/3
f 3/19/4 8/20/4 7/21/4 4/22/4
f 9/23/4 6/24/4 12/25/4 10/26/4
f 15/27/1 16/28/1 17/29/1 18/30/1
f 19/31/2 5/5/2 20/32/2 21/33/2
f 19/31/2 21/33/2 22/34/2 23/35/2
f 15/27/1 24/36/1 25/37/1 16/28/1
f 23/35/2 11/11/2 26/38/2 19/31/2
f 15/39/4 19/40/4 26/41/4 24/42/4
f 18/43/3 17/44/3 21/45/3 20/46/3
f 16/47/3 25/48/3 23/49/3 22/50/3
f 5/5/2 8/8/2 27/51/2 28/52/2
f 1/1/1 18/30/1 29/53/1 2/2/1
f 5/5/2 28/52/2 20/32/2
f 18/30/1 1/1/1 15/27/1
f 1/16/5 5/15/5 19/40/5 15/39/5
f 3/19/6 2/54/6 27/55/6 8/20/6
f 29/56/6 18/43/6 20/46/6 28/57/6
f 11/11/2 30/58/2 31/59/2 12/12/2
f 14/14/1 13/13/1 32/60/1 25/37/1
f 11/11/2 23/35/2 30/58/2
f 25/37/1 24/36/1 14/14/1
f 14/17/6 24/42/6 26/41/6 11/18/6
f 10/26/5 12/25/5 31/61/5 13/62/5
f 32/63/5 30/64/5 23/49/5 25/48/5
f 2/2/1 29/53/1 33/65/1 34/66/1
f 27/51/2 35/67/2 36/68/2 28/52/2
f 2/54/3 34/69/3 35/70/3 27/55/3
f 33/71/4 29/56/4 28/57/4 36/72/4
f 37/73/1 38/74/1 32/60/1 13/13/1
f 39/75/2 31/59/2 30/58/2 40/76/2
f 37/77/3 13/62/3 31/61/3 39/78/3
f 32/63/4 38/79/4 40/80/4 30/64/4
f 4/4/1 34/66/1 37/73/1 9/9/1
f 7/7/2 6/6/2 39/75/2 35/67/2
f 9/23/6 37/77/6 39/78/6 6/24/6
f 4/22/5 7/21/5 35/70/5 34/69/5
f 33/65/1 17/29/1 16/28/1 38/74/1
f 36/68/2 40/76/2 22/34/2 21/33/2
f 38/79/6 16/47/6 22/50/6 40/80/6
f 33/71/5 36/72/5 21/45/5 17/44/5
f 34/66/1 33/65/1 38/74/1 37/73/1
f 35/67/2 39/75/2 40/76/2 36/68/2
f 41/81/1 42/82/1 43/83/1 44/84/1
f 44/85/7 43/86/7 45/87/7 46/88/7
f 46/89/1 45/90/1 47/91/1 48/92/1
f 48/93/8 47/94/8 49/95/8 50/96/8
f 42/82/1 51/97/1 52/98/1 43/83/1
f 43/86/9 52/99/9 53/100/9 45/87/9
f 45/90/1 53/101/1 54/102/1 47/91/1
f 47/94/10 54/103/10 55/104/10 49/95/10
f 51/97/1 56/105/1 57/106/1 52/98/1
f 52/99/8 57/107/8 58/108/8 53/100/8
f 53/101/1 58/109/1 59/110/1 54/102/1
f 54/103/7 59/111/7 60/112/7 55/104/7
f 56/105/1 41/81/1 44/84/1 57/106/1
f 44/85/10 46/88/10 58/108/10 57/107/10
f 46/89/1 48/92/1 59/110/1 58/109/1
f 48/93/9 50/96/9 60/112/9 59/111/9
f 50/113/1 49/114/1 55/115/1 60/116/1
f 61/117/2 62/118/2 63/119/2 64/120/2
f 64/121/11 63/122/11 65/123/11 66/124/11
f 66/124/2 65/123/2 67/125/2 68/126/2
f 68/126/12 67/125/12 69/127/12 70/128/12
f 71/129/2 61/117/2 64/120/2 72/130/2
f 72/131/13 64/121/13 66/124/13 73/132/13
f 73/132/2 66/124/2 68/126/2 74/133/2
f 74/133/14 68/126/14 70/128/14 75/134/14
f 76/135/2 71/129/2 72/130/2 77/136/2
f 77/137/12 72/131/12 73/132/12 78/138/12
f 78/138/2 73/132/2 74/133/2 79/139/2
f 79/139/11 74/133/11 75/134/11 80/140/11
f 62/118/2 76/135/2 77/136/2 63/119/2
f 65/123/14 63/122/14 77/137/14 78/138/14
f 67/125/2 65/123/2 78/138/2 79/139/2
f 69/127/13 67/125/13 79/139/13 80/140/13
f 70/141/2 69/142/2 80/143/2 75/144/2
f 41/145/3 56/146/3 76/147/3 62/148/3
f 51/149/4 42/150/4 61/151/4 71/152/4
f 56/146/6 51/149/6 71/152/6 76/147/6
f 42/150/5 41/145/5 62/148/5 61/151/5
f 81/153/1 82/154/1 83/155/1 84/156/1
f 84/157/7 83/158/7 85/159/7 86/160/7
f 86/161/1 85/162/1 87/163/1 88/164/1
f 88/165/8 87/166/8 89/167/8 90/168/8
f 82/154/1 91/169/1 92/170/1 83/155/1
f 83/158/9 92/171/9 93/172/9 85/159/9
f 85/162/1 93/173/1 94/174/1 87/163/1
f 87/166/10 94/175/10 95/176/10 89/167/10
f 91/169/1 96/177/1 97/178/1 92/170/1
f 92/171/8 97/179/8 98/180/8 93/172/8
f 93/173/1 98/181/1 99/182/1 94/174/1
f 94/175/7 99/183/7 100/184/7 95/176/7
f 96/177/1 81/153/1 84/156/1 97/178/1
f 84/157/10 86/160/10 98/180/10 97/179/10
f 86/161/1 88/164/1 99/182/1 98/181/1
f 88/165/9 90/168/9 100/184/9 99/183/9
f 90/185/1 89/186/1 95/187/1 100/188/1
f 101/189/2 102/190/2 103/191/2 104/192/2
f 104/193/11 103/194/11 105/195/11 106/196/11
f 106/196/2 105/195/2 107/197/2 108/198/2
f 108/198/12 107/197/12 109/199/12 110/200/12
f 111/201/2 101/189/2 104/192/2 112/202/2
f 112/203/13 104/193/13 106/196/13 113/204/13
f 113/204/2 106/196/2 108/198/2 114/205/2
f 114/205/14 108/198/14 110/200/14 115/206/14
f 116/207/2 111/201/2 112/202/2 117/208/2
f 117/209/12 112/203/12 113/204/12 118/210/12
f 118/210/2 113/204/2 114/205/2 119/211/2
f 119/211/11 114/205/11 115/206/11 120/212/11
f 102/190/2 116/207/2 117/208/2 103/191/2
f 105/195/14 103/194/14 117/209/14 118/210/14
f 107/197/2 105/195/2 118/210/2 119/211/2
f 109/199/13 107/197/13 119/211/13 120/212/13
f 110/213/2 109/214/2 120/215/2 115/216/2
f 81/217/3 96/218/3 116/219/3 102/220/3
f 91/221/4 82/222/4 101/223/4 111/224/4
f 96/218/6 91/221/6 111/224/6 116/219/6
f 82/222/5 81/217/5 102/220/5 101/223/5
f 121/225/1 122/226/1 123/227/1 124/228/1
f 124/229/7 123/230/7 125/231/7 126/232/7
f 126/233/1 125/234/1 127/235/1 128/236/1
f 128/237/8 127/238/8 129/239/8 130/240/8
f 122/226/1 131/241/1 132/242/1 123/227/1
f 123/230/9 132/243/9 133/244/9 125/231/9
f 125/234/1 133/245/1 134/246/1 127/235/1
f 127/238/15 134/247/15 135/248/15 129/239/15
f 131/241/1 136/249/1 137/250/1 132/242/1
f 132/243/8 137/251/8 138/252/8 133/244/8
f 133/245/1 138/253/1 139/254/1 134/246/1
f 134/247/7 139/255/7 140/256/7 135/248/7
f 136/249/1 121/225/1 124/228/1 137/250/1
f 124/229/10 126/232/10 138/252/10 137/251/10
f 126/233/1 128/236/1 139/254/1 138/253/1
f 128/237/9 130/240/9 140/256/9 139/255/9
f 130/257/1 129/258/1 135/259/1 140/260/1
f 141/261/2 142/262/2 143/263/2 144/264/2
f 144/265/11 143/266/11 145/267/11 146/268/11
f 146/268/2 145/267/2 147/269/2 148/270/2
f 148/270/12 147/269/12 149/271/12 150/272/12
f 151/273/2 141/261/2 144/264/2 152/274/2
f 152/275/13 144/265/13 146/268/13 153/276/13
f 153/276/2 146/268/2 148/270/2 154/277/2
f 154/277/16 148/270/16 150/272/16 155/278/16
f 156/279/2 151/273/2 152/274/2 157/280/2
f 157/281/12 152/275/12 153/276/12 158/282/12
f 158/282/2 153/276/2 154/277/2 159/283/2
f 159/283/11 154/277/11 155/278/11 160/284/11
f 142/262/2 156/279/2 157/280/2 143/263/2
f 145/267/14 143/266/14 157/281/14 158/282/14
f 147/269/2 145/267/2 158/282/2 159/283/2
f 149/271/13 147/269/13 159/283/13 160/284/13
f 150/285/2 149/286/2 160/287/2 155/288/2
f 121/289/3 136/290/3 156/291/3 142/292/3
f 131/293/4 122/294/4 141/295/4 151/296/4
f 136/290/6 131/293/6 151/296/6 156/291/6
f 122/294/5 121/289/5 142/292/5 141/295/5
f 161/297/1 162/298/1 163/299/1 164/300/1
f 164/301/7 163/302/7 165/303/7 166/304/7
f 166/305/1 165/306/1 167/307/1 168/308/1
f 168/309/8 167/310/8 169/311/8 170/312/8
f 162/298/1 171/313/1 172/314/1 163/299/1
f 163/302/9 172/315/9 173/316/9 165/303/9
f 165/306/1 173/317/1 174/318/1 167/307/1
f 167/310/10 174/319/10 175/320/10 169/311/10
f 171/313/1 176/321/1 177/322/1 172/314/1
f 172/315/8 177/323/8 178/324/8 173/316/8
f 173/317/1 178/325/1 179/326/1 174/318/1
f 174/319/7 179/327/7 180/328/7 175/320/7
f 176/321/1 161/297/1 164/300/1 177/322/1
f 164/301/10 166/304/10 178/324/10 177/323/10
f 166/305/1 168/308/1 179/326/1 178/325/1
f 168/309/9 170/312/9 180/328/9 179/327/9
f 170/329/1 169/330/1 175/331/1 180/332/1
f 181/333/2 182/334/2 183/335/2 184/336/2
f 184/337/11 183/338/11 185/339/11 186/340/11
f 186/340/2 185/339/2 187/341/2 188/342/2
f 188/342/12 187/341/12 189/343/12 190/344/12
f 191/345/2 181/333/2 184/336/2 192/346/2
f 192/347/13 184/337/13 186/340/13 193/348/13
f 193/348/2 186/340/2 188/342/2 194/349/2
f 194/349/14 188/342/14 190/344/14 195/350/14
f 196/351/2 191/345/2 192/346/2 197/352/2
f 197/353/12 192/347/12 193/348/12 198/354/12
f 198/354/2 193/348/2 194/349/2 199/355/2
f 199/355/11 194/349/11 195/350/11 200/356/11
f 182/334/2 196/351/2 197/352/2 183/335/2
f 185/339/14 183/338/14 197/353/14 198/354/14
f 187/341/2 185/339/2 198/354/2 199/355/2
f 189/343/13 187/341/13 199/355/13 200/356/13
f 190/357/2 189/358/2 200/359/2 195/360/2
f 161/361/3 176/362/3 196/363/3 182/364/3
f 171/365/4 162/366/4 181/367/4 191/368/4
f 176/362/6 171/365/6 191/368/6 196/363/6
f 162/366/5 161/361/5 182/364/5 181/367/5
f 201/369/5 202/370/5 203/371/5 204/372/5
f 202/373/1 201/374/1 205/375/1 206/376/1
f 201/377/4 204/378/4 207/379/4 205/380/4
f 204/381/2 203/382/2 208/383/2 207/384/2
f 203/385/3 202/386/3 206/387/3 208/388/3
f 209/389/5 210/390/5 211/391/5 212/392/5
f 210/393/1 209/394/1 213/395/1 214/396/1
f 209/397/4 212/398/4 215/399/4 213/400/4
f 212/401/2 211/402/2 216/403/2 215/404/2
f 211/405/3 210/406/3 214/407/3 216/408/3
f 206/409/1 213/410/1 217/411/1 218/412/1
f 218/413/6 217/414/6 219/415/6 220/416/6
f 208/417/2 220/418/2 219/419/2 215/420/2
f 206/421/5 208/422/5 215/423/5 213/424/5
f 206/387/3 218/425/3 220/426/3 208/388/3
f 217/427/4 213/400/4 215/399/4 219/428/4
