# Blender v2.81 (sub 12) OBJ File: 'untitled.blend'
# www.blender.org
mtllib floor.mtl
o Floor_bedroom.022
v -2.448410 -2.711800 -3.800522
v 3.495994 -2.711800 -3.667632
v 3.432261 -2.711800 -6.991632
v -2.448410 -2.711800 -6.991632
v -2.448410 -2.711801 -0.023608
v 3.495994 -2.711801 0.048663
v 6.150494 -2.711800 -3.667632
v 6.150494 -2.711800 -6.991632
vt -5.273011 0.961841
vt 2.693744 0.961841
vt 2.693744 6.273011
vt -5.273011 6.273011
vt -5.273011 -5.273011
vt 2.693744 -5.273011
vt 6.273011 0.961841
vt 6.273011 6.273011
vn 0.0000 1.0000 0.0000
usemtl WoodFloor
s 1
f 1/1/1 2/2/1 3/3/1 4/4/1
f 5/5/1 6/6/1 2/2/1 1/1/1
f 7/7/1 8/8/1 3/3/1 2/2/1
