# Blender v2.81 (sub 12) OBJ File: 'untitled.blend'
# www.blender.org
mtllib wardrobe_big.mtl
o Wardrobe_bedroom.025
v 5.132403 -1.002960 -5.012857
v 5.132403 -1.002960 -5.038850
v 5.185313 -1.002960 -5.038850
v 5.185313 -1.002960 -5.012857
v 5.132403 -0.472231 -5.012857
v 5.185313 -0.472231 -5.012857
v 5.185313 -0.472231 -5.038850
v 5.132403 -0.472231 -5.038850
v 5.185313 -0.493902 -5.012857
v 5.132403 -0.493902 -5.012857
v 5.132403 -0.981289 -5.012857
v 5.185313 -0.981289 -5.012857
v 5.185313 -0.493902 -5.038850
v 5.185313 -0.981289 -5.038850
v 5.132403 -0.493902 -5.038850
v 5.132403 -0.981289 -5.038850
v 5.185313 -0.472231 -4.990560
v 5.132403 -0.472231 -4.990560
v 5.132403 -0.493902 -4.990560
v 5.185313 -0.493902 -4.990560
v 5.132403 -1.002960 -4.990560
v 5.185313 -1.002960 -4.990560
v 5.185313 -0.981289 -4.990560
v 5.132403 -0.981289 -4.990560
v 4.952863 -1.002960 -5.012857
v 4.952863 -1.002960 -5.038850
v 5.005778 -1.002960 -5.038850
v 5.005778 -1.002960 -5.012857
v 4.952863 -0.472231 -5.012857
v 5.005778 -0.472231 -5.012857
v 5.005778 -0.472231 -5.038850
v 4.952863 -0.472231 -5.038850
v 5.005778 -0.493902 -5.012857
v 4.952863 -0.493902 -5.012857
v 4.952863 -0.981289 -5.012857
v 5.005778 -0.981289 -5.012857
v 5.005778 -0.493902 -5.038850
v 5.005778 -0.981289 -5.038850
v 4.952863 -0.493902 -5.038850
v 4.952863 -0.981289 -5.038850
v 5.005778 -0.472231 -4.990560
v 4.952863 -0.472231 -4.990560
v 4.952863 -0.493902 -4.990560
v 5.005778 -0.493902 -4.990560
v 4.952863 -1.002960 -4.990560
v 5.005778 -1.002960 -4.990560
v 5.005778 -0.981289 -4.990560
v 4.952863 -0.981289 -4.990560
v 4.784637 -2.356653 -5.012857
v 4.784637 -2.356653 -5.038850
v 4.784637 -2.409563 -5.038850
v 4.784637 -2.409563 -5.012857
v 5.315367 -2.356653 -5.012857
v 5.315367 -2.409563 -5.012857
v 5.315367 -2.409563 -5.038850
v 5.315367 -2.356653 -5.038850
v 5.293696 -2.409563 -5.012857
v 5.293696 -2.356653 -5.012857
v 4.806309 -2.356653 -5.012857
v 4.806309 -2.409563 -5.012857
v 5.293696 -2.409563 -5.038850
v 4.806309 -2.409563 -5.038850
v 5.293696 -2.356653 -5.038850
v 4.806309 -2.356653 -5.038850
v 5.315367 -2.409563 -4.990560
v 5.315367 -2.356653 -4.990560
v 5.293696 -2.356653 -4.990560
v 5.293696 -2.409563 -4.990560
v 4.784637 -2.356653 -4.990560
v 4.784637 -2.409563 -4.990560
v 4.806309 -2.409563 -4.990560
v 4.806309 -2.356653 -4.990560
v 5.922090 -2.655290 -4.836726
v 4.230729 -2.655290 -4.836726
v 4.230729 0.595881 -4.836725
v 5.922090 0.595881 -4.836725
v 5.922090 0.595881 -4.984416
v 5.922090 -2.655290 -4.984417
v 4.230729 0.595881 -4.984416
v 4.230729 -2.655290 -4.984417
v 5.874696 -2.711740 -4.993076
v 5.874696 -2.711740 -3.837011
v 4.263634 -2.711740 -3.837011
v 4.263634 -2.711740 -4.993076
v 5.874696 0.735661 -3.837010
v 5.874696 0.735661 -4.993075
v 4.263634 0.735661 -4.993075
v 4.263634 0.735661 -3.837010
v 5.874696 -2.629865 -3.837011
v 4.263634 -2.629865 -3.837011
v 5.946331 -2.711740 -4.993076
v 5.946331 -2.629865 -4.993076
v 5.946331 -2.629865 -3.837011
v 5.946331 -2.711740 -3.837011
v 4.263634 -2.631957 -4.993076
v 5.874696 -2.631957 -4.993076
v 4.191999 -2.711740 -3.837011
v 4.191999 -2.629865 -3.837011
v 4.191999 -2.629865 -4.993076
v 4.191999 -2.711740 -4.993076
v 4.263634 0.563289 -3.837010
v 5.874696 0.563289 -3.837010
v 5.946331 0.735661 -4.993075
v 5.946331 0.735661 -3.837010
v 5.946331 0.563289 -3.837010
v 5.946331 0.563289 -4.993075
v 5.874696 0.566172 -4.993075
v 5.069168 0.566172 -4.993075
v 4.263634 0.566172 -4.993075
v 4.191999 0.735661 -3.837010
v 4.191999 0.735661 -4.993075
v 4.191999 0.563289 -4.993075
v 4.191999 0.563289 -3.837010
v 4.263634 -2.163289 -3.837010
v 5.874696 -2.163289 -3.837010
v 5.946331 -2.163289 -4.993076
v 5.946331 -2.163289 -3.837010
v 5.872604 -2.165381 -4.993076
v 5.872604 -2.627773 -4.993076
v 4.265726 -2.627773 -4.993076
v 4.265726 -2.165381 -4.993076
v 4.191999 -2.163289 -3.837010
v 4.191999 -2.163289 -4.993076
v 4.263634 -2.106563 -3.837010
v 5.874696 -2.106563 -3.837010
v 5.946331 -2.106563 -3.837010
v 5.946331 -2.106562 -4.993076
v 5.066285 0.560411 -4.993075
v 5.066285 -2.103680 -4.993076
v 4.266511 -2.103680 -4.993076
v 4.266511 0.560411 -4.993075
v 4.191999 -2.106562 -4.993076
v 4.191999 -2.106563 -3.837010
v 5.874696 -2.109440 -4.993076
v 5.874696 -2.161197 -4.993076
v 4.263634 -2.161197 -4.993076
v 5.069168 -2.109440 -4.993076
v 4.263634 -2.109440 -4.993076
v 4.261542 -2.629865 -4.993076
v 5.876788 -2.629865 -4.993076
v 5.877579 0.563289 -4.993075
v 4.260751 0.563289 -4.993075
v 5.876788 -2.163289 -4.993076
v 4.261542 -2.163289 -4.993076
v 5.877579 -2.106562 -4.993076
v 4.260751 -2.106562 -4.993076
v 5.871819 0.560411 -4.993075
v 5.871819 -2.103680 -4.993076
v 5.072045 -2.103680 -4.993076
v 5.072045 0.560411 -4.993075
vt 0.000000 0.000000
vt 0.000000 1.000000
vt 0.000000 1.000000
vt 0.000000 0.000000
vt 1.000000 1.000000
vt 1.000000 1.000000
vt 1.000000 0.000000
vt 1.000000 0.000000
vt 0.040800 1.000000
vt 0.040800 0.000000
vt 0.959200 0.000000
vt 0.959200 1.000000
vt 0.959200 0.000000
vt 0.959200 1.000000
vt 0.040800 1.000000
vt 0.040800 0.000000
vt 0.959200 0.000000
vt 0.959200 0.023700
vt 0.040800 0.023800
vt 0.040800 0.000000
vt 1.000000 0.000000
vt 1.000000 0.023700
vt 0.000000 0.023700
vt 0.000000 0.000000
vt 0.216908 0.000048
vt 0.216908 0.023187
vt 0.009280 0.023188
vt 0.009280 0.000048
vt 1.000000 0.000000
vt 1.000000 0.023800
vt 0.000000 0.023700
vt 0.000000 0.000000
vt 0.040800 1.000000
vt 0.040800 0.950000
vt 0.959200 0.950000
vt 0.959200 1.000000
vt 1.000000 1.000000
vt 0.000000 1.000000
vt 0.000000 0.950000
vt 1.000000 0.950000
vt 0.009283 0.999886
vt 0.009283 0.950733
vt 0.113089 0.950730
vt 0.216896 0.950728
vt 0.216896 0.999882
vt 1.000000 1.000000
vt 0.000000 1.000000
vt 0.000000 0.950000
vt 1.000000 0.950000
vt 0.040800 0.159100
vt 0.959200 0.159100
vt 1.000000 0.159100
vt 0.000000 0.159100
vt 0.042000 0.158500
vt 0.042000 0.024400
vt 0.958000 0.024400
vt 0.958000 0.158500
vt 1.000000 0.159100
vt 0.000000 0.159100
vt 0.040800 0.175500
vt 0.959200 0.175500
vt 0.000000 0.175500
vt 1.000000 0.175500
vt 0.501600 0.949200
vt 0.501600 0.176400
vt 0.957500 0.176400
vt 0.957500 0.949200
vt 0.000000 0.175500
vt 1.000000 0.175500
vt 1.000000 0.175500
vt 1.000000 0.159100
vt 0.009280 0.174732
vt 0.009280 0.159721
vt 0.216908 0.159721
vt 0.113094 0.174732
vt 0.216908 0.174732
vt 0.000000 0.159100
vt 0.000000 0.175500
vt 1.000000 0.175500
vt 1.000000 0.159100
vt 0.000000 1.000000
vt 1.000000 1.000000
vt 1.000000 0.000000
vt 0.000000 0.000000
vt 1.000000 0.000000
vt 1.000000 0.023700
vt 0.000000 0.023800
vt 0.000000 0.000000
vt 0.226140 0.023794
vt 0.217177 0.023794
vt 0.226140 0.000048
vt 0.000048 0.023795
vt 0.000048 0.000049
vt 0.009010 0.023795
vt 0.040800 0.023100
vt 0.039600 0.023700
vt 0.040800 0.000000
vt 0.000000 1.000000
vt 0.000000 0.950000
vt 1.000000 0.950000
vt 1.000000 1.000000
vt 0.000052 0.949897
vt 0.008911 0.949897
vt 0.000052 0.999886
vt 0.226140 0.949956
vt 0.226140 0.999952
vt 0.216907 0.999952
vt 0.217278 0.949956
vt 0.959200 0.950800
vt 0.960800 0.950000
vt 0.959200 1.000000
vt 0.000048 0.159115
vt 0.009011 0.159114
vt 0.226140 0.159114
vt 0.217177 0.159114
vt 0.000048 0.175567
vt 0.008909 0.175567
vt 0.226140 0.175566
vt 0.217279 0.175566
vt 0.042500 0.949200
vt 0.042500 0.176400
vt 0.498400 0.176400
vt 0.498400 0.949200
vt 0.402023 0.954334
vt 0.567044 0.954320
vt 0.594477 0.997701
vt 0.372324 0.999960
vt 0.648616 0.926459
vt 0.689468 0.977120
vt 0.000000 0.959200
vt 1.000000 0.959200
vt 1.000000 0.959200
vt 0.000000 0.959200
vt 0.329913 0.924541
vt 0.273831 0.975232
vt 0.568577 0.057741
vt 0.405977 0.045201
vt 0.387615 0.000040
vt 0.605130 0.016200
vt 0.311270 0.073032
vt 0.280150 0.015719
vt 1.000000 0.040800
vt 0.000000 0.040800
vt 0.000000 0.040800
vt 1.000000 0.040800
vt 0.630098 0.086605
vt 0.689468 0.043492
vt 0.397682 0.954335
vt 0.557995 0.954321
vt 0.584645 0.997701
vt 0.368834 0.999960
vt 0.637231 0.926459
vt 0.676916 0.977119
vt 0.000000 0.959200
vt 1.000000 0.959200
vt 1.000000 0.959200
vt 0.000000 0.959200
vt 0.327636 0.924541
vt 0.273161 0.975232
vt 0.559488 0.057740
vt 0.401529 0.045199
vt 0.383686 0.000040
vt 0.594992 0.016201
vt 0.309528 0.073031
vt 0.279299 0.015718
vt 1.000000 0.040800
vt 0.000000 0.040800
vt 0.000000 0.040800
vt 1.000000 0.040800
vt 0.619244 0.086605
vt 0.676916 0.043492
vt 0.526677 0.954335
vt 0.674610 0.954321
vt 0.699204 0.997702
vt 0.500052 0.999960
vt 0.747735 0.926461
vt 0.784360 0.977120
vt 0.000000 0.959200
vt 1.000000 0.959200
vt 1.000000 0.959200
vt 0.000000 0.959200
vt 0.462033 0.924542
vt 0.411759 0.975233
vt 0.675986 0.057740
vt 0.530221 0.045199
vt 0.513758 0.000040
vt 0.708750 0.016201
vt 0.445319 0.073032
vt 0.417420 0.015719
vt 1.000000 0.040800
vt 0.000000 0.040800
vt 0.000000 0.040800
vt 1.000000 0.040800
vt 0.731135 0.086606
vt 0.784359 0.043491
vt 0.523133 0.085979
vt 0.432005 0.083244
vt 0.445231 0.917581
vt 0.535706 0.923790
vt 0.416439 0.893988
vt 0.405339 0.112273
vt 0.558719 0.895171
vt 0.548387 0.110573
vt 1.000000 1.000000
vt 0.000000 1.000000
vt 0.000000 0.000000
vt 1.000000 0.000000
vt 0.515342 0.085979
vt 0.426811 0.083243
vt 0.439657 0.917581
vt 0.527554 0.923791
vt 0.411686 0.893989
vt 0.400907 0.112272
vt 0.549908 0.895171
vt 0.539874 0.110573
vt 1.000000 1.000000
vt 0.000000 1.000000
vt 0.000000 0.000000
vt 1.000000 0.000000
vt 0.635245 0.085978
vt 0.553553 0.083243
vt 0.565412 0.917581
vt 0.646518 0.923792
vt 0.539599 0.893989
vt 0.529650 0.112271
vt 0.667149 0.895173
vt 0.657885 0.110573
vt 1.000000 1.000000
vt 0.000000 1.000000
vt 0.000000 0.000000
vt 1.000000 0.000000
vn -1.0000 -0.0000 0.0000
vn 0.0000 -1.0000 0.0000
vn 1.0000 0.0000 0.0000
vn 0.0000 1.0000 0.0000
vn -0.5773 0.5773 -0.5773
vn 0.5773 0.5773 -0.5773
vn 0.5773 -0.5773 -0.5773
vn -0.5773 -0.5773 -0.5773
vn 0.0000 -0.7071 -0.7071
vn 0.0000 -0.7071 0.7071
vn 0.0000 0.7071 0.7071
vn 0.0000 0.7071 -0.7071
vn 0.0000 0.0000 1.0000
vn 0.7071 0.0000 -0.7071
vn 0.7071 0.0000 0.7071
vn 0.5773 -0.5773 0.5773
vn 0.0000 0.0000 -1.0000
vn -0.5773 -0.5773 0.5773
vn -0.7071 0.0000 0.7071
vn -0.7071 0.0000 -0.7071
vn 0.5773 0.5773 0.5773
vn -0.5773 0.5773 0.5773
vn -0.7071 -0.7071 0.0000
vn 0.7071 -0.7071 0.0000
vn -0.7071 0.7071 0.0000
vn 0.7071 0.7071 0.0000
vn 0.9045 -0.3015 0.3015
vn -0.9045 -0.3015 0.3015
vn -0.9045 0.3015 0.3015
vn 0.9045 0.3015 0.3015
vn -0.3015 -0.9045 0.3015
vn -0.3015 0.9045 0.3015
vn 0.3015 0.9045 0.3015
vn 0.3015 -0.9045 0.3015
usemtl Wood
s off
f 73/1/1 76/2/1 77/3/1 78/4/1
f 76/2/2 75/5/2 79/6/2 77/3/2
f 75/5/3 74/7/3 80/8/3 79/6/3
f 74/7/4 73/1/4 78/4/4 80/8/4
s 1
f 73/1/5 74/7/6 75/5/7 76/2/8
f 81/9/9 82/10/10 83/11/10 84/12/9
f 85/13/11 86/14/12 87/15/12 88/16/11
f 82/17/10 89/18/13 90/19/13 83/20/10
f 91/21/7 92/22/14 93/23/15 94/24/16
f 84/25/9 95/26/17 96/27/17 81/28/9
f 97/29/18 98/30/19 99/31/20 100/32/8
f 88/33/11 101/34/13 102/35/13 85/36/11
f 103/37/6 104/38/21 105/39/15 106/40/14
f 86/41/12 107/42/17 108/43/17 109/44/17
f 87/45/12 86/41/12 109/44/17
f 110/46/22 111/47/5 112/48/20 113/49/19
f 114/50/13 90/19/13 89/18/13 115/51/13
f 116/52/14 117/53/15 93/23/15 92/22/14
f 118/54/17 119/55/17 120/56/17 121/57/17
f 122/58/19 123/59/20 99/31/20 98/30/19
f 101/34/13 124/60/13 125/61/13 102/35/13
f 106/40/14 105/39/15 126/62/15 127/63/14
f 128/64/17 129/65/17 130/66/17 131/67/17
f 113/49/19 112/48/20 132/68/20 133/69/19
f 124/60/13 114/50/13 115/51/13 125/61/13
f 116/52/14 127/63/14 126/70/15 117/71/15
f 134/72/17 135/73/17 136/74/17 137/75/17
f 138/76/17 137/75/17 136/74/17
f 122/77/19 133/78/19 132/79/20 123/80/20
f 91/81/7 94/24/16 82/10/10 81/9/9
f 97/29/18 100/82/8 84/12/9 83/11/10
f 104/83/21 103/37/6 86/14/12 85/13/11
f 111/47/5 110/84/22 88/16/11 87/15/12
f 94/85/16 93/86/15 89/18/13 82/17/10
f 98/87/19 97/88/18 83/20/10 90/19/13
f 99/89/20 139/90/17 95/26/17 100/91/8
f 84/25/9 100/91/8 95/26/17
f 92/92/14 91/93/7 81/28/9 140/94/17
f 96/95/17 140/96/17 81/97/9
f 110/98/22 113/99/19 101/34/13 88/33/11
f 105/100/15 104/101/21 85/36/11 102/35/13
f 106/102/14 141/103/17 107/42/17 103/104/6
f 86/41/12 103/104/6 107/42/17
f 112/105/20 111/106/5 87/107/12 142/108/17
f 109/109/17 142/110/17 87/111/12
f 122/77/19 98/87/19 90/19/13 114/50/13
f 93/86/15 117/71/15 115/51/13 89/18/13
f 116/112/14 92/92/14 140/94/17 143/113/17
f 99/89/20 123/114/20 144/115/17 139/90/17
f 113/99/19 133/78/19 124/60/13 101/34/13
f 126/70/15 105/100/15 102/35/13 125/61/13
f 106/102/14 127/116/14 145/117/17 141/103/17
f 132/118/20 112/105/20 142/108/17 146/119/17
f 133/78/19 122/77/19 114/50/13 124/60/13
f 117/71/15 126/70/15 125/61/13 115/51/13
f 116/112/14 143/113/17 135/73/17 127/116/14
f 145/117/17 127/116/14 135/73/17 134/72/17
f 132/118/20 146/119/17 138/76/17 123/114/20
f 144/115/17 123/114/20 138/76/17 136/74/17
f 147/120/17 148/121/17 149/122/17 150/123/17
usemtl Metal
s off
f 6/124/4 5/125/4 18/126/4 17/127/4
f 5/125/1 10/128/1 19/129/1 18/126/1
f 10/130/2 9/131/2 20/132/2 19/133/2
f 9/134/3 6/124/3 17/127/3 20/135/3
f 1/136/2 4/137/2 22/138/2 21/139/2
f 4/137/3 12/140/3 23/141/3 22/138/3
f 12/142/4 11/143/4 24/144/4 23/145/4
f 11/146/1 1/136/1 21/139/1 24/147/1
f 30/148/4 29/149/4 42/150/4 41/151/4
f 29/149/1 34/152/1 43/153/1 42/150/1
f 34/154/2 33/155/2 44/156/2 43/157/2
f 33/158/3 30/148/3 41/151/3 44/159/3
f 25/160/2 28/161/2 46/162/2 45/163/2
f 28/161/3 36/164/3 47/165/3 46/162/3
f 36/166/4 35/167/4 48/168/4 47/169/4
f 35/170/1 25/160/1 45/163/1 48/171/1
f 54/172/3 53/173/3 66/174/3 65/175/3
f 53/173/4 58/176/4 67/177/4 66/174/4
f 58/178/1 57/179/1 68/180/1 67/181/1
f 57/182/2 54/172/2 65/175/2 68/183/2
f 49/184/1 52/185/1 70/186/1 69/187/1
f 52/185/2 60/188/2 71/189/2 70/186/2
f 60/190/3 59/191/3 72/192/3 71/193/3
f 59/194/4 49/184/4 69/187/4 72/195/4
s 1
f 1/136/23 2/196/8 3/197/7 4/137/24
f 5/125/25 6/124/26 7/198/6 8/199/5
f 9/131/27 10/130/28 11/143/29 12/142/30
f 13/200/14 9/134/27 12/140/30 14/201/14
f 15/202/20 13/200/14 14/201/14 16/203/20
f 10/128/28 15/202/20 16/203/20 11/146/29
f 17/204/21 18/205/22 19/133/18 20/132/16
f 21/206/18 22/207/16 23/145/21 24/144/22
f 7/198/6 6/124/26 9/134/27 13/200/14
f 4/137/24 3/197/7 14/201/14 12/140/30
f 8/199/5 7/198/6 13/200/14 15/202/20
f 3/197/7 2/196/8 16/203/20 14/201/14
f 5/125/25 8/199/5 15/202/20 10/128/28
f 2/196/8 1/136/23 11/146/29 16/203/20
f 25/160/23 26/208/8 27/209/7 28/161/24
f 29/149/25 30/148/26 31/210/6 32/211/5
f 33/155/27 34/154/28 35/167/29 36/166/30
f 37/212/14 33/158/27 36/164/30 38/213/14
f 39/214/20 37/212/14 38/213/14 40/215/20
f 34/152/28 39/214/20 40/215/20 35/170/29
f 41/216/21 42/217/22 43/157/18 44/156/16
f 45/218/18 46/219/16 47/169/21 48/168/22
f 31/210/6 30/148/26 33/158/27 37/212/14
f 28/161/24 27/209/7 38/213/14 36/164/30
f 32/211/5 31/210/6 37/212/14 39/214/20
f 27/209/7 26/208/8 40/215/20 38/213/14
f 29/149/25 32/211/5 39/214/20 34/152/28
f 26/208/8 25/160/23 35/170/29 40/215/20
f 49/184/25 50/220/5 51/221/8 52/185/23
f 53/173/26 54/172/24 55/222/7 56/223/6
f 57/179/31 58/178/32 59/191/33 60/190/34
f 61/224/9 57/182/31 60/188/34 62/225/9
f 63/226/12 61/224/9 62/225/9 64/227/12
f 58/176/32 63/226/12 64/227/12 59/194/33
f 65/228/16 66/229/21 67/181/22 68/180/18
f 69/230/22 70/231/18 71/193/16 72/192/21
f 55/222/7 54/172/24 57/182/31 61/224/9
f 52/185/23 51/221/8 62/225/9 60/188/34
f 56/223/6 55/222/7 61/224/9 63/226/12
f 51/221/8 50/220/5 64/227/12 62/225/9
f 53/173/26 56/223/6 63/226/12 58/176/32
f 50/220/5 49/184/25 59/194/33 64/227/12
