# Blender v2.81 (sub 12) OBJ File: 'untitled.blend'
# www.blender.org
mtllib wardrobe_medium.mtl
o WardrobeMedium_bedroom.030
v -1.448600 -2.681304 -0.400040
v -1.448600 -2.681304 -2.492278
v -1.448600 -1.162586 -2.492278
v -1.448600 -1.162586 -0.400040
v -1.397846 -1.162586 -0.400040
v -1.397846 -2.681304 -0.400040
v -1.397846 -1.162586 -2.492278
v -1.397846 -2.681304 -2.492278
v -1.303590 -1.815768 -1.039233
v -1.278649 -1.815768 -1.039233
v -1.278649 -1.815768 -0.932633
v -1.303590 -1.815768 -0.932633
v -1.303590 -1.709169 -1.039233
v -1.303590 -1.709169 -0.932633
v -1.278649 -1.709169 -0.932633
v -1.278649 -1.709169 -1.039233
v -1.352943 -1.792462 -1.018745
v -1.301987 -1.792462 -1.018745
v -1.301987 -1.792462 -0.953121
v -1.352943 -1.792462 -0.953121
v -1.352943 -1.734100 -1.018745
v -1.352943 -1.734100 -0.953121
v -1.301987 -1.734100 -0.953121
v -1.301987 -1.734100 -1.018745
v -1.303590 -1.815768 -1.964521
v -1.278648 -1.815768 -1.964521
v -1.278648 -1.815768 -1.857922
v -1.303590 -1.815768 -1.857922
v -1.303590 -1.709169 -1.964521
v -1.303590 -1.709169 -1.857922
v -1.278649 -1.709169 -1.857922
v -1.278648 -1.709169 -1.964521
v -1.352943 -1.792462 -1.944039
v -1.301987 -1.792462 -1.944039
v -1.301987 -1.792462 -1.878410
v -1.352943 -1.792462 -1.878410
v -1.352943 -1.734100 -1.944039
v -1.352943 -1.734100 -1.878410
v -1.301987 -1.734100 -1.878410
v -1.301987 -1.734100 -1.944039
v -1.345940 -2.531436 -1.039233
v -1.320998 -2.531436 -1.039233
v -1.320998 -2.531436 -0.932633
v -1.345940 -2.531436 -0.932633
v -1.345940 -2.424843 -1.039233
v -1.345940 -2.424843 -0.932633
v -1.320998 -2.424843 -0.932633
v -1.320998 -2.424843 -1.039233
v -1.395293 -2.508135 -1.018745
v -1.344337 -2.508135 -1.018745
v -1.344337 -2.508135 -0.953121
v -1.395293 -2.508135 -0.953121
v -1.395293 -2.449774 -1.018745
v -1.395293 -2.449774 -0.953121
v -1.344337 -2.449774 -0.953121
v -1.344337 -2.449774 -1.018745
v -1.345940 -2.531436 -1.964521
v -1.320998 -2.531436 -1.964521
v -1.320998 -2.531436 -1.857922
v -1.345940 -2.531436 -1.857922
v -1.345940 -2.424843 -1.964521
v -1.345940 -2.424843 -1.857922
v -1.320998 -2.424843 -1.857922
v -1.320998 -2.424843 -1.964521
v -1.395292 -2.508135 -1.944039
v -1.344337 -2.508135 -1.944039
v -1.344337 -2.508135 -1.878410
v -1.395292 -2.508135 -1.878410
v -1.395292 -2.449774 -1.944039
v -1.395292 -2.449774 -1.878410
v -1.344337 -2.449774 -1.878410
v -1.344337 -2.449774 -1.944039
v -1.345940 -2.155905 -1.039233
v -1.320998 -2.155905 -1.039233
v -1.320998 -2.155905 -0.932633
v -1.345940 -2.155905 -0.932633
v -1.345940 -2.049311 -1.039233
v -1.345940 -2.049311 -0.932633
v -1.320998 -2.049311 -0.932633
v -1.320998 -2.049311 -1.039233
v -1.395293 -2.132604 -1.018745
v -1.344337 -2.132604 -1.018745
v -1.344337 -2.132604 -0.953121
v -1.395293 -2.132604 -0.953121
v -1.395293 -2.074242 -1.018745
v -1.395293 -2.074242 -0.953121
v -1.344337 -2.074242 -0.953121
v -1.344337 -2.074242 -1.018745
v -1.345940 -2.155905 -1.964521
v -1.320998 -2.155905 -1.964521
v -1.320998 -2.155905 -1.857922
v -1.345940 -2.155905 -1.857922
v -1.345940 -2.049311 -1.964521
v -1.345940 -2.049311 -1.857922
v -1.320998 -2.049311 -1.857922
v -1.320998 -2.049311 -1.964521
v -1.395293 -2.132604 -1.944039
v -1.344337 -2.132604 -1.944039
v -1.344337 -2.132604 -1.878410
v -1.395293 -2.132604 -1.878410
v -1.395293 -2.074242 -1.944039
v -1.395293 -2.074242 -1.878410
v -1.344337 -2.074242 -1.878410
v -1.344337 -2.074242 -1.944039
v -1.345940 -1.413654 -1.039233
v -1.320999 -1.413654 -1.039233
v -1.320999 -1.413654 -0.932633
v -1.345940 -1.413654 -0.932633
v -1.345940 -1.307060 -1.039233
v -1.345940 -1.307060 -0.932633
v -1.320999 -1.307060 -0.932633
v -1.320999 -1.307060 -1.039233
v -1.395293 -1.390353 -1.018745
v -1.344337 -1.390353 -1.018745
v -1.344337 -1.390353 -0.953121
v -1.395293 -1.390353 -0.953121
v -1.395293 -1.331991 -1.018745
v -1.395293 -1.331991 -0.953121
v -1.344337 -1.331991 -0.953121
v -1.344337 -1.331991 -1.018745
v -1.345940 -1.413654 -1.964521
v -1.320999 -1.413654 -1.964521
v -1.320999 -1.413654 -1.857922
v -1.345940 -1.413654 -1.857922
v -1.345940 -1.307060 -1.964521
v -1.345940 -1.307060 -1.857922
v -1.320999 -1.307060 -1.857922
v -1.320999 -1.307060 -1.964521
v -1.395293 -1.390353 -1.944039
v -1.344337 -1.390353 -1.944039
v -1.344337 -1.390353 -1.878410
v -1.395293 -1.390353 -1.878410
v -1.395293 -1.331991 -1.944039
v -1.395293 -1.331991 -1.878410
v -1.344337 -1.331991 -1.878410
v -1.344337 -1.331991 -1.944039
v -2.239311 -2.711741 -2.503045
v -1.387621 -2.711740 -2.503045
v -1.387621 -2.711740 -0.371154
v -2.239311 -2.711741 -0.371154
v -2.239311 -1.133759 -2.503045
v -2.239311 -1.133759 -0.371154
v -1.387621 -1.133759 -0.371154
v -1.387621 -1.133759 -2.503045
v -2.239311 -2.658651 -2.449955
v -2.239311 -2.658651 -0.424244
v -2.239311 -1.186849 -0.424244
v -2.239311 -1.186849 -2.449955
v -1.387621 -1.925096 -2.447603
v -1.387621 -1.925096 -0.426596
v -1.387621 -2.288348 -0.426596
v -1.387621 -2.288348 -2.447603
v -1.387621 -2.661003 -2.452301
v -1.387621 -2.661003 -0.421892
v -1.387621 -1.184497 -2.452301
v -1.387621 -1.554799 -2.452301
v -1.387621 -1.922750 -2.452301
v -1.387621 -2.290700 -2.452301
v -1.387621 -1.184497 -0.421892
v -1.387621 -2.290700 -0.421892
v -1.387621 -1.922750 -0.421892
v -1.387621 -1.554799 -0.421892
v -1.387621 -1.189195 -2.447603
v -1.387621 -1.189195 -0.426596
v -1.387621 -1.552447 -0.426596
v -1.387621 -1.552447 -2.447603
v -1.334531 -1.557146 -2.447603
v -1.334531 -1.557146 -0.426596
v -1.334531 -1.920398 -0.426596
v -1.334531 -1.920398 -2.447603
v -1.387621 -2.656299 -0.426596
v -1.387621 -2.656299 -2.447603
v -1.387621 -2.293047 -2.447603
v -1.387621 -2.293047 -0.426596
v -1.387621 -1.920398 -2.447603
v -1.387621 -1.557146 -2.447603
v -1.387621 -1.557146 -0.426596
v -1.387621 -1.920398 -0.426596
v -1.346742 -1.557146 -0.438807
v -1.375410 -1.557146 -0.438807
v -1.346742 -1.557146 -2.435392
v -1.375410 -1.557146 -2.435392
v -1.346742 -1.920228 -0.438807
v -1.375410 -1.920228 -0.438807
v -1.375410 -1.920228 -2.435392
v -1.346742 -1.920228 -2.435392
v -1.448897 -1.557146 -2.435392
v -1.448897 -1.920228 -2.435392
v -1.448897 -1.920228 -0.438807
v -1.448897 -1.557146 -0.438807
v -1.397432 -1.920398 -2.447603
v -1.397432 -1.557146 -2.447603
v -1.397432 -1.557146 -0.426596
v -1.397432 -1.920398 -0.426596
vt 0.000000 0.000000
vt 0.000000 1.000000
vt 0.000000 1.000000
vt 0.000000 0.000000
vt 1.000000 1.000000
vt 1.000000 1.000000
vt 1.000000 0.000000
vt 1.000000 0.000000
vt 1.000000 0.000000
vt 0.000000 0.000000
vt 1.000000 0.000000
vt 0.000000 0.000000
vt 0.000000 1.000000
vt 1.000000 1.000000
vt 1.000000 0.000000
vt 0.000000 0.000000
vt 0.000000 1.000000
vt 1.000000 1.000000
vt 0.000000 1.000000
vt 1.000000 1.000000
vt 1.000000 0.044300
vt 0.044300 0.000000
vt 0.000000 0.000000
vt 0.000000 1.000000
vt 0.955700 1.000000
vt 0.955700 0.749300
vt 0.955700 0.500000
vt 0.955700 0.250700
vt 1.000000 1.000000
vt 0.044300 1.000000
vt 1.000000 0.000000
vt 0.044300 0.250700
vt 0.044300 0.500000
vt 0.044300 0.749300
vt 0.064988 0.000051
vt 0.064988 0.999949
vt 0.000051 0.999949
vt 0.000051 0.000051
vt 0.065090 0.999949
vt 0.065090 0.000051
vt 0.130028 0.000051
vt 0.130028 0.999949
vt 0.001200 0.501600
vt 0.998800 0.501600
vt 0.998800 0.501600
vt 0.001200 0.501600
vt 0.001200 0.748400
vt 0.001200 0.748400
vt 0.001200 0.748400
vt 0.001200 0.748400
vt 0.998800 0.748400
vt 0.998800 0.748400
vt 0.998800 0.748400
vt 0.998800 0.748400
vt 0.001200 0.748400
vt 0.001200 0.748400
vt 0.998800 0.748400
vt 0.998800 0.748400
vt 0.998800 0.748400
vt 0.998800 0.748400
vt 0.001200 0.748400
vt 0.001200 0.748400
vt 0.998800 0.501600
vt 0.998800 0.748400
vt 0.001200 0.748400
vt 0.001200 0.501600
vt 0.000000 0.000000
vt 1.000000 0.000000
vt 1.000000 1.000000
vt 0.000000 1.000000
vt 0.000000 1.000000
vt -0.000000 0.000000
vt 1.000000 0.000000
vt 1.000000 1.000000
vt 0.998800 0.498400
vt 0.001200 0.498400
vt 0.001200 0.251600
vt 0.998800 0.251600
vt 0.000000 1.000000
vt -0.000000 0.000000
vt 1.000000 0.000000
vt 1.000000 1.000000
vt 0.998800 0.998400
vt 0.001200 0.998400
vt 0.001200 0.751600
vt 0.998800 0.751600
vt 0.001200 0.001600
vt 0.998800 0.001600
vt 0.998800 0.248400
vt 0.001200 0.248400
vt 0.998800 0.748400
vt 0.998800 0.501600
vt 0.001200 0.748400
vt 0.998800 0.748400
vt 0.584879 0.329727
vt 0.584879 0.692672
vt 0.221933 0.692672
vt 0.221933 0.329727
vt 0.221933 0.329727
vt 0.584879 0.329727
vt 0.584879 0.692672
vt 0.221933 0.692672
vt 0.221933 0.329727
vt 0.584879 0.329727
vt 0.584879 0.692672
vt 0.221933 0.692672
vt 0.584879 0.329727
vt 0.221933 0.692672
vt 0.221933 0.329727
vt 0.584879 0.329727
vt 0.584879 0.692672
vt 0.221933 0.692672
vt 0.221933 0.329727
vt 0.584879 0.692672
vt 0.584879 0.329727
vt 0.584879 0.692672
vt 0.221933 0.692672
vt 0.221933 0.329727
vt 0.221933 0.329727
vt 0.584879 0.329727
vt 0.584879 0.692672
vt 0.221933 0.692672
vt 0.221933 0.329727
vt 0.584879 0.329727
vt 0.584879 0.692672
vt 0.221933 0.692672
vt 0.584879 0.329727
vt 0.221933 0.692672
vt 0.221933 0.329727
vt 0.584879 0.329727
vt 0.584879 0.692672
vt 0.221933 0.692672
vt 0.221933 0.329727
vt 0.584879 0.692672
vt 0.584879 0.329727
vt 0.584879 0.692672
vt 0.221933 0.692672
vt 0.221933 0.329727
vt 0.221933 0.329727
vt 0.584879 0.329727
vt 0.584879 0.692672
vt 0.221933 0.692672
vt 0.221933 0.329727
vt 0.584879 0.329727
vt 0.584879 0.692672
vt 0.221933 0.692672
vt 0.584879 0.329727
vt 0.221933 0.692672
vt 0.221933 0.329727
vt 0.584879 0.329727
vt 0.584879 0.692672
vt 0.221933 0.692672
vt 0.221933 0.329727
vt 0.584879 0.692672
vt 0.584879 0.329727
vt 0.584879 0.692672
vt 0.221933 0.692672
vt 0.221933 0.329727
vt 0.221933 0.329727
vt 0.584879 0.329727
vt 0.584879 0.692672
vt 0.221933 0.692672
vt 0.221933 0.329727
vt 0.584879 0.329727
vt 0.584879 0.692672
vt 0.221933 0.692672
vt 0.584879 0.329727
vt 0.221933 0.692672
vt 0.221933 0.329727
vt 0.584879 0.329727
vt 0.584879 0.692672
vt 0.221933 0.692672
vt 0.221933 0.329727
vt 0.584879 0.692672
vt 0.584879 0.329727
vt 0.584879 0.692672
vt 0.221933 0.692672
vt 0.221933 0.329727
vt 0.221933 0.329727
vt 0.584879 0.329727
vt 0.584879 0.692672
vt 0.221933 0.692672
vt 0.221933 0.329727
vt 0.584879 0.329727
vt 0.584879 0.692672
vt 0.221933 0.692672
vt 0.584879 0.329727
vt 0.221933 0.692672
vt 0.221933 0.329727
vt 0.584879 0.329727
vt 0.584879 0.692672
vt 0.221933 0.692672
vt 0.221933 0.329727
vt 0.584879 0.692672
vt 0.584879 0.329727
vt 0.584879 0.692672
vt 0.221933 0.692672
vt 0.221933 0.329727
vt 0.221933 0.329727
vt 0.584879 0.329727
vt 0.584879 0.692672
vt 0.221933 0.692672
vt 0.221933 0.329727
vt 0.584879 0.329727
vt 0.584879 0.692672
vt 0.221933 0.692672
vt 0.584879 0.329727
vt 0.221933 0.692672
vt 0.221933 0.329727
vt 0.584879 0.329727
vt 0.584879 0.692672
vt 0.221933 0.692672
vt 0.221933 0.329727
vt 0.584879 0.692672
vt 0.584879 0.329727
vt 0.584879 0.692672
vt 0.221933 0.692672
vt 0.221933 0.329727
vt 0.221933 0.329727
vt 0.584879 0.329727
vt 0.584879 0.692672
vt 0.221933 0.692672
vt 0.221933 0.329727
vt 0.584879 0.329727
vt 0.584879 0.692672
vt 0.221933 0.692672
vt 0.584879 0.329727
vt 0.221933 0.692672
vt 0.221933 0.329727
vt 0.584879 0.329727
vt 0.584879 0.692672
vt 0.221933 0.692672
vt 0.221933 0.329727
vt 0.584879 0.692672
vt 0.584879 0.329727
vt 0.584879 0.692672
vt 0.221933 0.692672
vt 0.221933 0.329727
vt 0.221933 0.329727
vt 0.584879 0.329727
vt 0.584879 0.692672
vt 0.221933 0.692672
vt 0.221933 0.329727
vt 0.584879 0.329727
vt 0.584879 0.692672
vt 0.221933 0.692672
vt 0.584879 0.329727
vt 0.221933 0.692672
vt 0.221933 0.329727
vt 0.584879 0.329727
vt 0.584879 0.692672
vt 0.221933 0.692672
vt 0.221933 0.329727
vt 0.584879 0.692672
vt 0.584879 0.329727
vt 0.584879 0.692672
vt 0.221933 0.692672
vt 0.221933 0.329727
vt 0.221933 0.329727
vt 0.584879 0.329727
vt 0.584879 0.692672
vt 0.221933 0.692672
vt 0.221933 0.329727
vt 0.584879 0.329727
vt 0.584879 0.692672
vt 0.221933 0.692672
vt 0.584879 0.329727
vt 0.221933 0.692672
vt 0.221933 0.329727
vt 0.584879 0.329727
vt 0.584879 0.692672
vt 0.221933 0.692672
vt 0.221933 0.329727
vt 0.584879 0.692672
vt 0.584879 0.329727
vt 0.584879 0.692672
vt 0.221933 0.692672
vt 0.221933 0.329727
vt 0.221933 0.329727
vt 0.584879 0.329727
vt 0.584879 0.692672
vt 0.221933 0.692672
vt 0.221933 0.329727
vt 0.584879 0.329727
vt 0.584879 0.692672
vt 0.221933 0.692672
vt 0.584879 0.329727
vt 0.221933 0.692672
vt 0.221933 0.329727
vt 0.584879 0.329727
vt 0.584879 0.692672
vt 0.221933 0.692672
vt 0.221933 0.329727
vt 0.584879 0.692672
vt 0.584879 0.329727
vt 0.584879 0.692672
vt 0.221933 0.692672
vt 0.221933 0.329727
vt 0.221933 0.329727
vt 0.584879 0.329727
vt 0.584879 0.692672
vt 0.221933 0.692672
vt 0.221933 0.329727
vt 0.584879 0.329727
vt 0.584879 0.692672
vt 0.221933 0.692672
vt 0.584879 0.329727
vt 0.221933 0.692672
vt 0.221933 0.329727
vt 0.584879 0.329727
vt 0.584879 0.692672
vt 0.221933 0.692672
vt 0.221933 0.329727
vt 0.584879 0.692672
vt 0.584879 0.329727
vt 0.584879 0.692672
vt 0.221933 0.692672
vt 0.221933 0.329727
vt 0.221933 0.329727
vt 0.584879 0.329727
vt 0.584879 0.692672
vt 0.221933 0.692672
vt 0.221933 0.329727
vt 0.584879 0.329727
vt 0.584879 0.692672
vt 0.221933 0.692672
vt 0.584879 0.329727
vt 0.221933 0.692672
vt 0.221933 0.329727
vt 0.584879 0.329727
vt 0.584879 0.692672
vt 0.221933 0.692672
vt 0.221933 0.329727
vt 0.584879 0.692672
vt 0.584879 0.329727
vt 0.584879 0.692672
vt 0.221933 0.692672
vt 0.221933 0.329727
vt 0.221933 0.329727
vt 0.584879 0.329727
vt 0.584879 0.692672
vt 0.221933 0.692672
vt 0.221933 0.329727
vt 0.584879 0.329727
vt 0.584879 0.692672
vt 0.221933 0.692672
vt 0.584879 0.329727
vt 0.221933 0.692672
vt 0.221933 0.329727
vt 0.584879 0.329727
vt 0.584879 0.692672
vt 0.221933 0.692672
vt 0.221933 0.329727
vt 0.584879 0.692672
vt 0.584879 0.329727
vt 0.584879 0.692672
vt 0.221933 0.692672
vt 0.221933 0.329727
vt 0.221933 0.329727
vt 0.584879 0.329727
vt 0.584879 0.692672
vt 0.221933 0.692672
vt 0.584879 0.329727
vt 0.221933 0.692672
vt 0.221933 0.329727
vt 0.584879 0.329727
vt 0.584879 0.692672
vt 0.221933 0.692672
vt 0.221933 0.329727
vt 0.584879 0.692672
vt 0.584879 0.329727
vt 0.584879 0.692672
vt 0.221933 0.692672
vt 0.221933 0.329727
vt 0.221933 0.329727
vt 0.584879 0.329727
vt 0.584879 0.692672
vt 0.221933 0.692672
vt 0.221933 0.329727
vt 0.584879 0.329727
vt 0.584879 0.692672
vt 0.221933 0.692672
vt 0.584879 0.329727
vt 0.221933 0.692672
vt 0.221933 0.329727
vt 0.584879 0.329727
vt 0.584879 0.692672
vt 0.221933 0.692672
vt 0.221933 0.329727
vt 0.584879 0.692672
vt 0.584879 0.329727
vt 0.584879 0.692672
vt 0.221933 0.692672
vt 0.221933 0.329727
vt 0.221933 0.329727
vt 0.584879 0.329727
vt 0.584879 0.692672
vt 0.221933 0.692672
vt 0.221933 0.329727
vt 0.584879 0.329727
vt 0.584879 0.692672
vt 0.221933 0.692672
vt 0.584879 0.329727
vt 0.221933 0.692672
vt 0.221933 0.329727
vt 0.584879 0.329727
vt 0.584879 0.692672
vt 0.221933 0.692672
vt 0.221933 0.329727
vt 0.584879 0.692672
vn 0.0000 0.0000 -1.0000
vn 0.0000 -1.0000 -0.0000
vn 0.0000 0.0000 1.0000
vn 0.0000 1.0000 0.0000
vn -1.0000 0.0000 0.0000
vn 1.0000 -0.0000 0.0000
vn 0.5773 0.5773 -0.5773
vn 0.5773 0.5773 0.5773
vn 0.5773 -0.5773 0.5773
vn 0.5773 -0.5773 -0.5773
vn -0.5773 -0.5773 -0.5773
vn -0.5773 -0.5773 0.5773
vn -0.5773 0.5773 0.5773
vn -0.5773 0.5773 -0.5773
vn 0.0000 0.4472 -0.8944
vn 0.0000 0.4472 0.8944
vn 0.0000 0.7071 0.7071
vn 0.0000 0.7071 -0.7071
usemtl Wood
s off
f 1/1/1 4/2/1 5/3/1 6/4/1
f 4/2/2 3/5/2 7/6/2 5/3/2
f 3/5/3 2/7/3 8/8/3 7/6/3
f 2/7/4 1/1/4 6/4/4 8/8/4
f 137/9/5 140/10/5 146/11/5 145/12/5
f 140/10/5 142/13/5 147/14/5 146/11/5
f 142/15/5 141/16/5 148/17/5 147/14/5
f 141/18/5 137/9/5 145/12/5 148/17/5
f 139/19/6 138/20/6 153/21/6 154/22/6
f 138/23/6 144/24/6 155/25/6 156/26/6
f 138/23/6 156/26/6 157/27/6 158/28/6
f 138/23/6 158/28/6 153/21/6
f 144/24/6 143/29/6 159/30/6 155/25/6
f 143/29/6 139/31/6 154/22/6 160/32/6
f 143/29/6 160/32/6 161/33/6 162/34/6
f 143/29/6 162/34/6 159/30/6
f 175/35/1 176/36/1 167/37/1 170/38/1
f 177/39/3 178/40/3 169/41/3 168/42/3
f 178/43/2 175/44/2 170/45/2 169/46/2
f 177/47/4 168/48/4 179/49/4 180/50/4
f 168/48/4 167/51/4 181/52/4 179/49/4
f 167/51/4 176/53/4 182/54/4 181/52/4
f 180/50/1 179/49/1 183/55/1 184/56/1
f 181/52/3 182/54/3 185/57/3 186/58/3
f 185/57/3 182/54/3 187/59/3 188/60/3
f 180/50/1 184/56/1 189/61/1 190/62/1
f 176/53/1 175/44/1 191/63/1 192/64/1
f 178/43/3 177/47/3 193/65/3 194/66/3
s 1
f 1/1/7 2/7/8 3/5/9 4/2/10
f 113/67/11 116/68/12 118/69/13 117/70/14
f 137/9/11 138/20/10 139/19/9 140/10/12
f 141/16/14 142/15/13 143/29/8 144/24/7
f 145/12/5 146/11/5 147/14/5 148/17/5
f 140/71/12 139/72/9 143/73/8 142/74/13
f 149/75/6 150/76/6 151/77/6 152/78/6
f 138/79/10 137/80/11 141/81/14 144/82/7
f 163/83/6 164/84/6 165/85/6 166/86/6
f 167/51/7 168/48/8 169/46/9 170/45/10
f 171/87/6 172/88/6 173/89/6 174/90/6
f 184/91/15 185/92/16 188/93/17 189/94/18
usemtl Metal
f 9/95/11 10/96/10 11/97/9 12/98/12
f 13/99/14 14/100/13 15/101/8 16/102/7
f 9/103/11 12/104/12 14/105/13 13/106/14
f 12/98/12 11/107/9 15/101/8 14/108/13
f 11/109/9 10/110/10 16/111/7 15/112/8
f 10/113/10 9/95/11 13/114/14 16/102/7
f 17/115/11 18/116/10 19/117/9 20/118/12
f 21/119/14 22/120/13 23/121/8 24/122/7
f 17/123/11 20/124/12 22/125/13 21/126/14
f 20/118/12 19/127/9 23/121/8 22/128/13
f 19/129/9 18/130/10 24/131/7 23/132/8
f 18/133/10 17/115/11 21/134/14 24/122/7
f 25/135/11 26/136/10 27/137/9 28/138/12
f 29/139/14 30/140/13 31/141/8 32/142/7
f 25/143/11 28/144/12 30/145/13 29/146/14
f 28/138/12 27/147/9 31/141/8 30/148/13
f 27/149/9 26/150/10 32/151/7 31/152/8
f 26/153/10 25/135/11 29/154/14 32/142/7
f 33/155/11 34/156/10 35/157/9 36/158/12
f 37/159/14 38/160/13 39/161/8 40/162/7
f 33/163/11 36/164/12 38/165/13 37/166/14
f 36/158/12 35/167/9 39/161/8 38/168/13
f 35/169/9 34/170/10 40/171/7 39/172/8
f 34/173/10 33/155/11 37/174/14 40/162/7
f 41/175/11 42/176/10 43/177/9 44/178/12
f 45/179/14 46/180/13 47/181/8 48/182/7
f 41/183/11 44/184/12 46/185/13 45/186/14
f 44/178/12 43/187/9 47/181/8 46/188/13
f 43/189/9 42/190/10 48/191/7 47/192/8
f 42/193/10 41/175/11 45/194/14 48/182/7
f 49/195/11 50/196/10 51/197/9 52/198/12
f 53/199/14 54/200/13 55/201/8 56/202/7
f 49/203/11 52/204/12 54/205/13 53/206/14
f 52/198/12 51/207/9 55/201/8 54/208/13
f 51/209/9 50/210/10 56/211/7 55/212/8
f 50/213/10 49/195/11 53/214/14 56/202/7
f 57/215/11 58/216/10 59/217/9 60/218/12
f 61/219/14 62/220/13 63/221/8 64/222/7
f 57/223/11 60/224/12 62/225/13 61/226/14
f 60/218/12 59/227/9 63/221/8 62/228/13
f 59/229/9 58/230/10 64/231/7 63/232/8
f 58/233/10 57/215/11 61/234/14 64/222/7
f 65/235/11 66/236/10 67/237/9 68/238/12
f 69/239/14 70/240/13 71/241/8 72/242/7
f 65/243/11 68/244/12 70/245/13 69/246/14
f 68/238/12 67/247/9 71/241/8 70/248/13
f 67/249/9 66/250/10 72/251/7 71/252/8
f 66/253/10 65/235/11 69/254/14 72/242/7
f 73/255/11 74/256/10 75/257/9 76/258/12
f 77/259/14 78/260/13 79/261/8 80/262/7
f 73/263/11 76/264/12 78/265/13 77/266/14
f 76/258/12 75/267/9 79/261/8 78/268/13
f 75/269/9 74/270/10 80/271/7 79/272/8
f 74/273/10 73/255/11 77/274/14 80/262/7
f 81/275/11 82/276/10 83/277/9 84/278/12
f 85/279/14 86/280/13 87/281/8 88/282/7
f 81/283/11 84/284/12 86/285/13 85/286/14
f 84/278/12 83/287/9 87/281/8 86/288/13
f 83/289/9 82/290/10 88/291/7 87/292/8
f 82/293/10 81/275/11 85/294/14 88/282/7
f 89/295/11 90/296/10 91/297/9 92/298/12
f 93/299/14 94/300/13 95/301/8 96/302/7
f 89/303/11 92/304/12 94/305/13 93/306/14
f 92/298/12 91/307/9 95/301/8 94/308/13
f 91/309/9 90/310/10 96/311/7 95/312/8
f 90/313/10 89/295/11 93/314/14 96/302/7
f 97/315/11 98/316/10 99/317/9 100/318/12
f 101/319/14 102/320/13 103/321/8 104/322/7
f 97/323/11 100/324/12 102/325/13 101/326/14
f 100/318/12 99/327/9 103/321/8 102/328/13
f 99/329/9 98/330/10 104/331/7 103/332/8
f 98/333/10 97/315/11 101/334/14 104/322/7
f 105/335/11 106/336/10 107/337/9 108/338/12
f 109/339/14 110/340/13 111/341/8 112/342/7
f 105/343/11 108/344/12 110/345/13 109/346/14
f 108/338/12 107/347/9 111/341/8 110/348/13
f 107/349/9 106/350/10 112/351/7 111/352/8
f 106/353/10 105/335/11 109/354/14 112/342/7
f 113/355/11 114/356/10 115/357/9 116/358/12
f 117/359/14 118/360/13 119/361/8 120/362/7
f 116/358/12 115/363/9 119/361/8 118/364/13
f 115/365/9 114/366/10 120/367/7 119/368/8
f 114/369/10 113/355/11 117/370/14 120/362/7
f 121/371/11 122/372/10 123/373/9 124/374/12
f 125/375/14 126/376/13 127/377/8 128/378/7
f 121/379/11 124/380/12 126/381/13 125/382/14
f 124/374/12 123/383/9 127/377/8 126/384/13
f 123/385/9 122/386/10 128/387/7 127/388/8
f 122/389/10 121/371/11 125/390/14 128/378/7
f 129/391/11 130/392/10 131/393/9 132/394/12
f 133/395/14 134/396/13 135/397/8 136/398/7
f 129/399/11 132/400/12 134/401/13 133/402/14
f 132/394/12 131/403/9 135/397/8 134/404/13
f 131/405/9 130/406/10 136/407/7 135/408/8
f 130/409/10 129/391/11 133/410/14 136/398/7
